#!OML:ASF E:\emotionWalksFemale\Project 1\Capture day 1\Session 1\Female1.ASF
:FULLY-SPECIFIED
:DEGREES
847
root 8.32802 15.3356 22.6613 181.953 -5.52649 -179.854
lowerback 7.50223 0.784267 -0.103963
upperback 1.52945 0.970942 1.46668
thorax -2.65262 0.441197 1.47968
lowerneck -5.18473 -3.46116 -5.56
upperneck 0.87412 -4.44103 5.61829
head 1.45584 -2.16406 2.63942
rclavicle -8.24956e-015 8.74653e-015
rhumerus -29.192 2.94974 -85.8241
rradius 34.2319
rwrist 17.2898
rhand -4.70715 -53.3812
rfingers 7.12502
rthumb 21.0748 -802.256
lclavicle -8.24956e-015 8.74653e-015
lhumerus -34.1326 2.22066 86.5414
lradius 39.1158
lwrist -10.4854
lhand -6.19087 -37.6882
lfingers 7.12502
lthumb 19.6489 -8.66117
rfemur -23.2516 13.8311 20.5663
rtibia 24.3365
rfoot -8.49024 -24.449
rtoes -3.80521
lfemur 5.9204 -9.45805 -24.4432
ltibia 30.3427
lfoot -14.9948 1.59257
ltoes -14.3647
848
root 8.35138 15.3401 22.5948 181.982 -5.45715 -179.899
lowerback 7.25015 0.782437 -0.218625
upperback 1.67172 0.952064 1.52279
thorax -2.3679 0.428616 1.60716
lowerneck -5.39202 -3.43899 -5.58152
upperneck 0.841046 -4.39663 5.5051
head 1.47621 -2.14155 2.60445
rclavicle -1.38652e-014 7.95139e-015
rhumerus -29.0534 3.07329 -85.7744
rradius 34.2961
rwrist 17.3213
rhand -5.85916 -52.6419
rfingers 7.12502
rthumb 19.9677 -801.636
lclavicle -1.38652e-014 7.95139e-015
lhumerus -33.9804 2.23568 86.6637
lradius 39.3187
lwrist -10.3036
lhand -6.15599 -37.7322
lfingers 7.12502
lthumb 19.6824 -8.70866
rfemur -23.0933 13.7789 20.7318
rtibia 24.4424
rfoot -8.47356 -24.2907
rtoes -2.94991
lfemur 5.91706 -9.20789 -24.308
ltibia 30.6038
lfoot -14.3762 1.21836
ltoes -11.6333
849
root 8.37262 15.3442 22.5252 182.004 -5.27671 -179.838
lowerback 7.16392 0.834897 -0.107988
upperback 1.68023 1.02932 1.51052
thorax -2.31123 0.466356 1.52612
lowerneck -5.449 -3.42483 -5.63989
upperneck 0.83632 -4.37568 5.61007
head 1.4889 -2.12957 2.65074
rclavicle 1.59028e-014 -3.97569e-015
rhumerus -29.0546 3.04914 -85.7866
rradius 34.3337
rwrist 17.2104
rhand -5.81599 -52.8009
rfingers 7.12502
rthumb 20.0092 -801.791
lclavicle 1.59028e-014 -3.97569e-015
lhumerus -33.994 2.14824 86.7164
lradius 39.526
lwrist -10.2424
lhand -6.059 -37.534
lfingers 7.12502
lthumb 19.7756 -8.52003
rfemur -22.9672 13.7425 21.0288
rtibia 24.616
rfoot -8.48056 -24.0234
rtoes -2.1091
lfemur 5.98172 -8.95298 -24.1087
ltibia 30.8017
lfoot -13.763 0.903197
ltoes -8.0723
850
root 8.39354 15.3514 22.4566 182.006 -5.16234 -179.872
lowerback 7.22606 0.881598 -0.0607969
upperback 1.60791 1.09936 1.43697
thorax -2.41997 0.503577 1.41604
lowerneck -5.31671 -3.42778 -5.80325
upperneck 0.800188 -4.38805 5.9756
head 1.47166 -2.13369 2.80594
rclavicle -9.29318e-015 6.36111e-015
rhumerus -29.0923 2.80931 -85.8169
rradius 34.1947
rwrist 17.2738
rhand -4.49941 -53.722
rfingers 7.12502
rthumb 21.2743 -802.574
lclavicle -9.29318e-015 6.36111e-015
lhumerus -34.1354 1.79808 86.8198
lradius 39.7204
lwrist -9.94116
lhand -6.15244 -37.5186
lfingers 7.12502
lthumb 19.6858 -8.49538
rfemur -22.8142 13.6275 21.2255
rtibia 24.8044
rfoot -8.44298 -23.7311
rtoes -1.71959
lfemur 6.10655 -8.7958 -24.0393
ltibia 30.9483
lfoot -13.0267 0.798838
ltoes -7.79065
851
root 8.41523 15.3577 22.3867 181.975 -5.09479 -180.032
lowerback 7.26972 0.904582 -0.217345
upperback 1.57221 1.12095 1.36547
thorax -2.48331 0.517213 1.42742
lowerneck -5.23807 -3.4593 -5.68816
upperneck 0.788176 -4.44143 5.97305
head 1.45346 -2.16118 2.78252
rclavicle -1.1778e-014 -5.1684e-015
rhumerus -29.1167 2.51507 -85.8301
rradius 34.0964
rwrist 17.5507
rhand -3.74737 -54.3103
rfingers 7.12502
rthumb 21.9965 -803.079
lclavicle -1.1778e-014 -5.1684e-015
lhumerus -34.2916 1.5139 86.8879
lradius 39.9121
lwrist -9.72051
lhand -6.20905 -37.7751
lfingers 7.12502
lthumb 19.6314 -8.74634
rfemur -22.587 13.4148 21.3018
rtibia 24.9438
rfoot -8.36428 -23.4233
rtoes -1.28329
lfemur 6.25814 -8.59465 -24.074
ltibia 31.1034
lfoot -12.3953 0.571961
ltoes -7.3864
852
root 8.44036 15.3661 22.3179 181.911 -5.10296 -180.062
lowerback 7.26069 0.865195 -0.323628
upperback 1.59248 1.0598 1.39202
thorax -2.4582 0.486808 1.52054
lowerneck -5.3073 -3.46514 -5.47614
upperneck 0.835231 -4.45031 5.6838
head 1.46524 -2.16719 2.64409
rclavicle -2.51463e-014 -1.78906e-014
rhumerus -29.1934 2.59541 -85.8991
rradius 34.2113
rwrist 17.575
rhand -4.07749 -54.4169
rfingers 7.12502
rthumb 21.6795 -803.223
lclavicle -2.51463e-014 -1.78906e-014
lhumerus -34.3705 1.47523 86.9294
lradius 40.0717
lwrist -9.69057
lhand -6.23501 -37.7386
lfingers 7.12502
lthumb 19.6064 -8.70729
rfemur -22.2883 13.232 21.5414
rtibia 25.0643
rfoot -8.29308 -23.2443
rtoes -0.675223
lfemur 6.38885 -8.4648 -23.9285
ltibia 31.2843
lfoot -11.7335 0.172909
ltoes -4.79269
853
root 8.46586 15.3766 22.2513 181.939 -5.12928 -180.007
lowerback 7.17318 0.774558 -0.344379
upperback 1.58782 0.938851 1.46505
thorax -2.4123 0.426492 1.61972
lowerneck -5.34341 -3.43091 -5.54758
upperneck 0.79533 -4.39477 5.62227
head 1.45549 -2.14025 2.63829
rclavicle -7.25564e-015 -3.97569e-016
rhumerus -29.22 2.96419 -85.9809
rradius 34.263
rwrist 17.4333
rhand -3.94607 -54.3845
rfingers 7.12502
rthumb 21.8058 -803.176
lclavicle -7.25564e-015 -3.97569e-016
lhumerus -34.3216 1.72487 86.9188
lradius 40.0603
lwrist -9.79547
lhand -6.28028 -37.5727
lfingers 7.12502
lthumb 19.5629 -8.53692
rfemur -22.0736 13.0481 21.8535
rtibia 25.1555
rfoot -8.46904 -23.1172
rtoes 0.293744
lfemur 6.35335 -8.36747 -23.6976
ltibia 31.481
lfoot -11.0063 0.0843844
ltoes -5.68507
854
root 8.48899 15.3836 22.1823 181.975 -5.0807 -180.02
lowerback 7.06685 0.722555 -0.423169
upperback 1.58032 0.865558 1.48873
thorax -2.36011 0.390916 1.6961
lowerneck -5.29147 -3.37357 -5.58579
upperneck 0.631509 -4.31631 5.65305
head 1.39054 -2.10277 2.65941
rclavicle 3.42904e-015 7.95139e-015
rhumerus -29.073 3.0922 -86.03
rradius 34.0408
rwrist 17.3466
rhand -3.53029 -54.4983
rfingers 7.12502
rthumb 22.205 -803.243
lclavicle 3.42904e-015 7.95139e-015
lhumerus -34.2596 2.0337 86.8362
lradius 39.99
lwrist -9.99783
lhand -6.15873 -37.5601
lfingers 7.12502
lthumb 19.6798 -8.53628
rfemur -21.8253 12.8874 22.0763
rtibia 25.1634
rfoot -8.70709 -22.9003
rtoes 1.07658
lfemur 6.31756 -8.14352 -23.5733
ltibia 31.7329
lfoot -10.342 0.222271
ltoes -10.1467
855
root 8.51174 15.387 22.1109 181.964 -4.97234 -180.019
lowerback 6.79507 0.726264 -0.547539
upperback 1.71208 0.855985 1.52552
thorax -2.07515 0.382725 1.80781
lowerneck -5.28365 -3.28256 -5.45863
upperneck 0.372708 -4.19801 5.57949
head 1.29215 -2.04696 2.61565
rclavicle 3.8763e-015 6.36111e-015
rhumerus -28.7199 3.19619 -86.0753
rradius 33.8009
rwrist 17.0992
rhand -3.73276 -54.7566
rfingers 7.12502
rthumb 22.0106 -803.524
lclavicle 3.8763e-015 6.36111e-015
lhumerus -34.0532 2.14805 86.8243
lradius 39.9614
lwrist -10.05
lhand -6.01207 -37.6218
lfingers 7.12502
lthumb 19.8208 -8.61248
rfemur -21.4939 12.8326 22.3257
rtibia 25.1256
rfoot -8.35386 -22.7206
rtoes -0.184279
lfemur 6.39305 -7.91157 -23.4073
ltibia 32.0311
lfoot -9.6757 -0.0203067
ltoes -8.89897
856
root 8.53454 15.3907 22.0411 182.023 -4.89422 -179.979
lowerback 7.31955 0.719949 -0.455796
upperback 1.29448 0.875728 1.43905
thorax -2.79587 0.405481 1.65867
lowerneck -5.2285 -3.24232 -5.28494
upperneck 0.669174 -4.16377 5.59538
head 1.37167 -2.02743 2.59029
rclavicle -8.44835e-016 1.47101e-014
rhumerus -29.3801 3.28317 -86.3093
rradius 33.9559
rwrist 16.8975
rhand -4.07346 -54.7719
rfingers 7.12502
rthumb 21.6834 -803.578
lclavicle -8.44835e-016 1.47101e-014
lhumerus -34.576 2.00361 86.648
lradius 39.8997
lwrist -10.1093
lhand -5.73117 -37.7208
lfingers 7.12502
lthumb 20.0908 -8.73962
rfemur -21.2936 12.7467 22.5956
rtibia 25.1042
rfoot -7.72827 -22.5895
rtoes -1.41756
lfemur 6.37937 -7.73481 -23.1432
ltibia 32.297
lfoot -8.93365 -0.409336
ltoes -4.08807
857
root 8.55534 15.3985 21.9726 182.065 -4.86291 -179.931
lowerback 6.79738 0.767178 -0.489217
upperback 1.56167 0.92427 1.53069
thorax -2.23298 0.421611 1.77365
lowerneck -5.28382 -3.3078 -5.36352
upperneck 0.330991 -4.24047 5.63835
head 1.28035 -2.06819 2.61637
rclavicle 1.77912e-014 2.82274e-014
rhumerus -29.0221 3.33392 -86.1071
rradius 34.0673
rwrist 16.8677
rhand -4.03153 -54.5964
rfingers 7.12502
rthumb 21.7237 -803.398
lclavicle 1.77912e-014 2.82274e-014
lhumerus -34.0392 2.07085 86.8147
lradius 39.6526
lwrist -10.3379
lhand -5.28672 -37.5743
lfingers 7.12502
lthumb 20.5179 -8.63852
rfemur -21.1265 12.6182 22.8439
rtibia 25.1207
rfoot -7.41189 -22.4397
rtoes -0.896492
lfemur 6.35583 -7.65578 -22.9538
ltibia 32.5059
lfoot -8.07934 -0.427004
ltoes -4.16167
